<svg width="22" height="21" viewBox="0 0 22 21" fill="none" xmlns="http://www.w3.org/2000/svg">
<path d="M1 14H3V21H1V14ZM7 9H9V21H7V9ZM13 13H15V21H13V13ZM19 9H21V21H19V9ZM17 4H18V5H17V4ZM16 5H17V6H16V5ZM13 6H15V7H13V6ZM13 9H15V10H13V9ZM12 7H13V9H12V7ZM15 7H16V9H15V7ZM11 5H12V6H11V5ZM10 4H11V5H10V4ZM7 3H9V4H7V3ZM7 0H9V1H7V0ZM9 1H10V3H9V1ZM6 1H7V3H6V1ZM19 3H21V4H19V3ZM18 1H19V3H18V1ZM19 0H21V1H19V0ZM21 1H22V3H21V1ZM5 5H6V6H5V5ZM4 6H5V7H4V6ZM3 8H4V10H3V8ZM0 8H1V10H0V8ZM1 7H3V8H1V7ZM1 10H3V11H1V10Z" fill="#3B82F6"/>
</svg>
