<svg width="21" height="21" viewBox="0 0 21 21" fill="none" xmlns="http://www.w3.org/2000/svg">
<path d="M21 6.75V2.25H16.5V3.75H9V1.5C8.9994 1.10236 8.84118 0.721173 8.56 0.439997C8.27883 0.158821 7.89764 0.000595125 7.5 0H1.5C1.10236 0.000595125 0.721173 0.158821 0.439997 0.439997C0.158821 0.721173 0.000595125 1.10236 0 1.5V7.5C0.000595125 7.89764 0.158821 8.27883 0.439997 8.56C0.721173 8.84118 1.10236 8.9994 1.5 9H7.5C7.89764 8.9994 8.27883 8.84118 8.56 8.56C8.84118 8.27883 8.9994 7.89764 9 7.5V5.25C9.59655 5.2506 10.1685 5.48784 10.5903 5.90967C11.0122 6.3315 11.2494 6.90345 11.25 7.5V14.25H6.75V12.75H2.25V17.25H6.75V15.75H11.25V17.25C11.2506 17.6476 11.4088 18.0288 11.69 18.31C11.9712 18.5912 12.3524 18.7494 12.75 18.75H16.5V20.25H21V15.75H16.5V17.25H12.75V12H16.5V13.5H21V9H16.5V10.5H12.75V7.5C12.7473 6.686 12.4772 5.89544 11.9813 5.25H16.5V6.75H21ZM1.5 7.5V1.5H7.5V7.5H1.5ZM5.25 15.75H3.75V14.25H5.25V15.75ZM18 17.25H19.5V18.75H18V17.25ZM18 10.5H19.5V12H18V10.5ZM18 3.75H19.5V5.25H18V3.75Z" fill="#3B82F6"/>
</svg>
