<svg width="22" height="20" viewBox="0 0 22 20" fill="none" xmlns="http://www.w3.org/2000/svg">
<path d="M14.4745 8.98799C14.0135 8.86445 13.5223 8.92905 13.1089 9.16758C12.6955 9.40611 12.3938 9.79905 12.2701 10.26L11.4937 13.158C11.1809 14.3821 11.3633 15.6801 12.0014 16.7706C12.6395 17.861 13.6818 18.6559 14.9022 18.9828C16.1226 19.3098 17.4226 19.1424 18.5204 18.5169C19.6181 17.8915 20.425 16.8585 20.7661 15.642L21.5425 12.7452C21.666 12.2842 21.6014 11.793 21.3629 11.3796C21.1244 10.9662 20.7314 10.6645 20.2705 10.5408L14.4745 8.98799Z" fill="url(#paint0_radial_153_5)"/>
<path d="M7.13047 8.98799C7.59147 8.86445 8.08266 8.92905 8.49604 9.16758C8.90942 9.40611 9.21114 9.79905 9.33487 10.26L10.1113 13.158C10.2827 13.7694 10.3311 14.4088 10.2536 15.0391C10.1762 15.6694 9.97441 16.278 9.66006 16.8298C9.34571 17.3815 8.925 17.8654 8.4223 18.2534C7.91961 18.6414 7.34492 18.9258 6.73153 19.0902C6.11814 19.2545 5.47824 19.2955 4.8489 19.2107C4.21956 19.126 3.61329 18.9172 3.06521 18.5965C2.51713 18.2758 2.03814 17.8495 1.65598 17.3423C1.27382 16.8352 0.996084 16.2572 0.838871 15.642L0.0612711 12.7452C0.00011972 12.5169 -0.0154555 12.2787 0.0154346 12.0443C0.0463248 11.81 0.123075 11.584 0.241304 11.3793C0.359533 11.1746 0.516924 10.9952 0.70449 10.8513C0.892057 10.7074 1.10612 10.6019 1.33447 10.5408L7.13047 8.98799Z" fill="url(#paint1_radial_153_5)"/>
<path d="M10.8002 0C9.84542 0 8.92974 0.379285 8.25461 1.05442C7.57948 1.72955 7.2002 2.64522 7.2002 3.6C7.2002 4.55478 7.57948 5.47045 8.25461 6.14558C8.92974 6.82072 9.84542 7.2 10.8002 7.2C11.755 7.2 12.6706 6.82072 13.3458 6.14558C14.0209 5.47045 14.4002 4.55478 14.4002 3.6C14.4002 2.64522 14.0209 1.72955 13.3458 1.05442C12.6706 0.379285 11.755 0 10.8002 0Z" fill="url(#paint2_radial_153_5)"/>
<path d="M18.6001 2.40002C17.8044 2.40002 17.0414 2.71609 16.4788 3.2787C15.9162 3.84131 15.6001 4.60438 15.6001 5.40002C15.6001 6.19567 15.9162 6.95874 16.4788 7.52134C17.0414 8.08395 17.8044 8.40002 18.6001 8.40002C19.3957 8.40002 20.1588 8.08395 20.7214 7.52134C21.284 6.95874 21.6001 6.19567 21.6001 5.40002C21.6001 4.60438 21.284 3.84131 20.7214 3.2787C20.1588 2.71609 19.3957 2.40002 18.6001 2.40002Z" fill="url(#paint3_radial_153_5)"/>
<path d="M3 2.40002C2.20435 2.40002 1.44129 2.71609 0.87868 3.2787C0.316071 3.84131 0 4.60438 0 5.40002C0 6.19567 0.316071 6.95874 0.87868 7.52134C1.44129 8.08395 2.20435 8.40002 3 8.40002C3.79565 8.40002 4.55871 8.08395 5.12132 7.52134C5.68393 6.95874 6 6.19567 6 5.40002C6 4.60438 5.68393 3.84131 5.12132 3.2787C4.55871 2.71609 3.79565 2.40002 3 2.40002Z" fill="url(#paint4_radial_153_5)"/>
<path d="M7.8 8.40002C7.32261 8.40002 6.86477 8.58967 6.52721 8.92723C6.18964 9.2648 6 9.72263 6 10.2V14.4C6 15.6731 6.50571 16.894 7.40589 17.7941C8.30606 18.6943 9.52696 19.2 10.8 19.2C12.073 19.2 13.2939 18.6943 14.1941 17.7941C15.0943 16.894 15.6 15.6731 15.6 14.4V10.2C15.6 9.72263 15.4104 9.2648 15.0728 8.92723C14.7352 8.58967 14.2774 8.40002 13.8 8.40002H7.8Z" fill="url(#paint5_radial_153_5)"/>
<defs>
<radialGradient id="paint0_radial_153_5" cx="0" cy="0" r="1" gradientUnits="userSpaceOnUse" gradientTransform="translate(14.8172 11.8069) rotate(78.837) scale(7.53743 7.53743)">
<stop stop-color="#0078D4"/>
<stop offset="1" stop-color="#004695"/>
</radialGradient>
<radialGradient id="paint1_radial_153_5" cx="0" cy="0" r="1" gradientUnits="userSpaceOnUse" gradientTransform="translate(2.51867 9.40692) rotate(61.056) scale(11.1928 8.0566)">
<stop stop-color="#008CE2"/>
<stop offset="1" stop-color="#0068C6"/>
</radialGradient>
<radialGradient id="paint2_radial_153_5" cx="0" cy="0" r="1" gradientUnits="userSpaceOnUse" gradientTransform="translate(10.1075 2.52792) rotate(59.931) scale(4.4972)">
<stop offset="0.339" stop-color="#3DCBFF"/>
<stop offset="1" stop-color="#14B1FF"/>
</radialGradient>
<radialGradient id="paint3_radial_153_5" cx="0" cy="0" r="1" gradientUnits="userSpaceOnUse" gradientTransform="translate(17.6375 4.08209) rotate(78.837) scale(4.40105)">
<stop stop-color="#0078D4"/>
<stop offset="1" stop-color="#004695"/>
</radialGradient>
<radialGradient id="paint4_radial_153_5" cx="0" cy="0" r="1" gradientUnits="userSpaceOnUse" gradientTransform="translate(1.73684 4.21866) rotate(47.573) scale(4.91969)">
<stop stop-color="#008CE2"/>
<stop offset="1" stop-color="#0068C6"/>
</radialGradient>
<radialGradient id="paint5_radial_153_5" cx="0" cy="0" r="1" gradientUnits="userSpaceOnUse" gradientTransform="translate(9.876 12.192) rotate(62.7688) scale(6.56569 6.16076)">
<stop offset="0.339" stop-color="#3DCBFF"/>
<stop offset="1" stop-color="#14B1FF"/>
</radialGradient>
</defs>
</svg>
